<svg width="136.000000" height="26.000000" viewBox="0 0 136 26" fill="none" xmlns="http://www.w3.org/2000/svg" xmlns:xlink="http://www.w3.org/1999/xlink">
	<desc>
			Created with Pixso.
	</desc>
	<defs/>
	<path id="SHOPPE" d="M59.54 -0.81C66.05 -0.81 70.78 4.21 70.78 12.27C70.78 20.32 66.05 25.35 59.54 25.35C53.03 25.35 48.3 20.32 48.3 12.27C48.3 4.21 53.03 -0.81 59.54 -0.81ZM26.48 25L23.4 25L23.4 -0.46L26.48 -0.46L26.48 10.88L40.06 10.88L40.06 -0.46L43.14 -0.46L43.14 25L40.06 25L40.06 13.61L26.48 13.61L26.48 25ZM79.03 25L75.95 25L75.95 -0.46L84.55 -0.46C90.53 -0.46 93.2 3.09 93.2 7.6C93.2 12.09 90.53 15.7 84.6 15.7L79.03 15.7L79.03 25ZM101.25 25L98.17 25L98.17 -0.46L106.77 -0.46C112.75 -0.46 115.43 3.09 115.43 7.6C115.43 12.09 112.75 15.7 106.82 15.7L101.25 15.7L101.25 25ZM135.96 25L120.4 25L120.4 -0.46L135.76 -0.46L135.76 2.27L123.47 2.27L123.47 10.88L134.96 10.88L134.96 13.61L123.47 13.61L123.47 22.26L135.96 22.26L135.96 25ZM59.54 22.46C64.16 22.46 67.8 18.88 67.8 12.27C67.8 5.66 64.16 2.08 59.54 2.08C54.92 2.08 51.29 5.66 51.29 12.27C51.29 18.88 54.92 22.46 59.54 22.46ZM79.03 2.27L79.03 12.96L84.5 12.96C88.59 12.96 90.17 10.65 90.17 7.6C90.17 4.54 88.59 2.27 84.45 2.27L79.03 2.27ZM101.25 2.27L101.25 12.96L106.72 12.96C110.81 12.96 112.39 10.65 112.39 7.6C112.39 4.54 110.81 2.27 106.68 2.27L101.25 2.27Z" fill="#000000" fill-opacity="1.000000" fill-rule="evenodd"/>
	<path id="SHOPPE" d="M17.98 5.91L15 5.91C14.7 3.39 12.36 1.92 9.28 1.92C5.9 1.92 3.66 3.72 3.66 6.15C3.66 8.89 6.69 9.88 8.58 10.37L11.17 11.08C13.8 11.77 18.33 13.31 18.33 18.08C18.33 22.21 15 25.44 9.13 25.44C3.66 25.44 0.29 22.61 -0.01 18.43L3.16 18.43C3.41 21.31 6.1 22.66 9.13 22.66C12.66 22.66 15.35 20.82 15.35 18.03C15.35 15.5 12.96 14.55 10.27 13.81L7.15 12.91C3.16 11.77 0.68 9.73 0.68 6.3C0.68 2.03 4.51 -0.81 9.38 -0.81C14.3 -0.81 17.84 2.06 17.98 5.91Z" fill="#A18A68" fill-opacity="1.000000" fill-rule="evenodd"/>
</svg>
